<?xml version="1.0" encoding="utf-8"?>
<!-- Generator: Adobe Illustrator 24.0.2, SVG Export Plug-In . SVG Version: 6.00 Build 0)  -->
<svg version="1.1" id="Layer_1" xmlns="http://www.w3.org/2000/svg" xmlns:xlink="http://www.w3.org/1999/xlink" x="0px" y="0px"
	 viewBox="0 0 792 612" style="enable-background:new 0 0 792 612;" xml:space="preserve">
<style type="text/css">
	.st0{fill:#F1F6F8;}
	.st1{fill:#D9E1E2;}
</style>
<g>
	<g>
		<path class="st0" d="M196.33,455.79c-2.69,0-5.15-1.52-6.35-3.92l-38.94-77.89c-0.35-0.7-0.07-1.55,0.63-1.9l10.16-5.08
			c0.7-0.35,1.55-0.07,1.9,0.63l32.6,65.19l32.6-65.19c0.35-0.7,1.2-0.99,1.9-0.63l10.16,5.08c0.7,0.35,0.99,1.2,0.63,1.9
			l-38.94,77.89C201.48,454.27,199.02,455.79,196.33,455.79z"/>
	</g>
	<g>
		<path class="st0" d="M285.76,455.79H274.4c-0.78,0-1.42-0.64-1.42-1.42V370.2c0-0.78,0.64-1.42,1.42-1.42h11.36
			c0.78,0,1.42,0.64,1.42,1.42v84.17C287.18,455.15,286.54,455.79,285.76,455.79z"/>
	</g>
	<g>
		<path class="st0" d="M403.97,455.79h-41.16c-23.67,0-43.7-18.52-44.41-42.18c-0.73-24.59,19.06-44.82,43.48-44.82h42.08
			c0.78,0,1.42,0.64,1.42,1.42v11.36c0,0.78-0.64,1.42-1.42,1.42h-41.36c-15.87,0-29.41,12.32-30.01,28.18
			c-0.63,16.67,12.75,30.44,29.29,30.44h42.08c0.78,0,1.42,0.64,1.42,1.42v11.36C405.39,455.15,404.75,455.79,403.97,455.79z"/>
	</g>
	<g>
		<path class="st0" d="M478.78,455.77c-23.66-0.7-42.18-20.74-42.18-44.41V370.2c0-0.78,0.64-1.42,1.42-1.42h11.36
			c0.78,0,1.42,0.64,1.42,1.42v41.36c0,15.87,12.32,29.41,28.18,30.01c16.67,0.63,30.44-12.75,30.44-29.29V370.2
			c0-0.78,0.64-1.42,1.42-1.42h11.36c0.78,0,1.42,0.64,1.42,1.42v42.08C523.6,436.71,503.37,456.5,478.78,455.77z"/>
	</g>
	<g>
		<path class="st0" d="M616.55,455.86l-53.24-0.07c-0.78,0-1.42-0.64-1.42-1.42l0.02-11.36c0-0.78,0.64-1.42,1.42-1.42l50.61,0.07
			c7.96-0.18,14.32-7.01,13.71-15.14c-0.56-7.42-7.07-12.99-14.51-12.99h-35.31c-12.04,0-22.41-9.23-23-21.25
			c-0.63-12.85,9.64-23.5,22.35-23.5l56.11,0c0.78,0,1.42,0.64,1.42,1.42v11.36c0,0.78-0.64,1.42-1.42,1.42h-56.11l0,0
			c-2.19,0-4.24,0.85-5.78,2.4c-1.77,1.77-2.63,4.21-2.34,6.75c0.48,4.18,4.22,7.22,8.42,7.22h35.46
			c15.47,0,28.59,12.15,28.93,27.61c0.33,14.88-10.91,27.27-25.33,28.76V455.86z"/>
	</g>
</g>
<g>
	<polygon class="st0" points="376.35,155.15 376.35,202.22 354.43,190.93 354.43,155.15 	"/>
	<polygon class="st0" points="442.09,303.67 442.09,330.38 420.18,330.38 420.18,292.38 	"/>
	<polygon class="st1" points="409.22,219.14 409.22,286.75 387.31,275.46 387.31,207.85 	"/>
</g>
</svg>
